<?xml version="1.0" encoding="utf-8" ?>
<svg xmlns="http://www.w3.org/2000/svg" xmlns:ev="http://www.w3.org/2001/xml-events" xmlns:xlink="http://www.w3.org/1999/xlink" baseProfile="tiny" height="384px" version="1.2" width="1500px">
  <defs/>
  <path d="M 60 324 L 165 324 L 186 60 L 90 60 Q 103.5 139.5 60 150 Q 77.4 158.7 60 324 z" fill="rgb(255,217,194)" stroke="black"/>
  <text fill="rgb(9,33,173)" font-size="25" x="87.2" y="186.6">Rback</text>
  <path d="M 267 324 L 372 324 Q 354.6 158.70000000000002 372 150 Q 333.0 138.0 342 60 L 246 60 L 267 324 z" fill="rgb(255,217,194)" stroke="black"/>
  <text fill="rgb(9,33,173)" font-size="25" x="294.8" y="186.6">Rfront</text>
  <path d="M 432 75 L 471 75 L 510 75 L 510 60 L 432 60 L 432 75 z" fill="rgb(255,217,194)" stroke="black"/>
  <text fill="rgb(9,33,173)" font-size="25" x="446.0" y="72.0">wb_back</text>
  <path d="M 570 75 L 609 75 L 648 75 L 648 60 L 570 60 L 570 75 z" fill="rgb(255,217,194)" stroke="black"/>
  <text fill="rgb(9,33,173)" font-size="25" x="584.0" y="72.0">wb_front</text>
  <path d="M 708 147 L 858 147 L 858 123 Q 829.1999999999999 108.89999999999999 846 60 L 810 60 Q 783.0 85.46710917508508 756 60 L 720 60 Q 736.8000000000001 108.89999999999999 708 123 L 708 147 z" fill="rgb(255,217,194)" stroke="black"/>
  <text fill="rgb(9,33,173)" font-size="25" x="758.0" y="100.5">top_back</text>
  <path d="M 918 147 L 1068 147 L 1068 123 Q 1039.2 108.89999999999999 1056 60 L 1020 60 L 993 69 L 966 60 L 930 60 Q 946.8000000000001 108.89999999999999 918 123 L 918 147 z" fill="rgb(255,217,194)" stroke="black"/>
  <text fill="rgb(9,33,173)" font-size="25" x="968.0" y="97.33333333333333">top_front</text>
  <path d="M 1149 324 L 1254 324 Q 1236.6 158.70000000000002 1254 150 Q 1210.5 139.5 1224 60 L 1128 60 L 1149 324 z" fill="rgb(255,217,194)" stroke="black"/>
  <text fill="rgb(9,33,173)" font-size="25" x="1176.8" y="186.6">Lback</text>
  <path d="M 1314 324 L 1419 324 L 1440 60 L 1344 60 Q 1353.0 138.0 1314 150 Q 1331.4 158.7 1314 324 z" fill="rgb(255,217,194)" stroke="black"/>
  <text fill="rgb(9,33,173)" font-size="25" x="1341.2" y="186.6">Lfront</text>
</svg>
