<?xml version="1.0" encoding="utf-8" ?>
<svg xmlns="http://www.w3.org/2000/svg" xmlns:ev="http://www.w3.org/2001/xml-events" xmlns:xlink="http://www.w3.org/1999/xlink" baseProfile="tiny" height="315px" version="1.2" width="1500px">
  <defs/>
  <path d="M 60 255 L 117 255 L 186 60 L 90 60 Q 107.1 146.25 60 159 Q 69.6 163.8 60 255 z" fill="rgb(255,217,194)" stroke="black"/>
  <text fill="rgb(9,33,173)" font-size="25" x="77.6" y="160.8">Rback</text>
  <path d="M 315 255 L 372 255 Q 362.4 163.8 372 159 Q 329.85 144.75 342 60 L 246 60 L 315 255 z" fill="rgb(255,217,194)" stroke="black"/>
  <text fill="rgb(9,33,173)" font-size="25" x="304.4" y="160.8">Rfront</text>
  <path d="M 432 72 L 471 72 L 510 72 L 510 60 L 432 60 L 432 72 z" fill="rgb(255,217,194)" stroke="black"/>
  <text fill="rgb(9,33,173)" font-size="25" x="446.0" y="70.2">wb_back</text>
  <path d="M 570 72 L 609 72 L 648 72 L 648 60 L 570 60 L 570 72 z" fill="rgb(255,217,194)" stroke="black"/>
  <text fill="rgb(9,33,173)" font-size="25" x="584.0" y="70.2">wb_front</text>
  <path d="M 708 138 L 858 138 L 858 114 Q 832.8 102.6 846 60 L 810 60 Q 783.0 119.38184491237425 756 60 L 720 60 Q 733.2 102.6 708 114 L 708 138 z" fill="rgb(255,217,194)" stroke="black"/>
  <text fill="rgb(9,33,173)" font-size="25" x="758.0" y="96.0">top_back</text>
  <path d="M 918 138 L 1068 138 L 1068 114 Q 1042.8000000000002 102.6 1056 60 L 1020 60 L 993 108 L 966 60 L 930 60 Q 943.2 102.6 918 114 L 918 138 z" fill="rgb(255,217,194)" stroke="black"/>
  <text fill="rgb(9,33,173)" font-size="25" x="968.0" y="97.66666666666667">top_front</text>
  <path d="M 1197 255 L 1254 255 Q 1244.4 163.8 1254 159 Q 1206.9 146.25 1224 60 L 1128 60 L 1197 255 z" fill="rgb(255,217,194)" stroke="black"/>
  <text fill="rgb(9,33,173)" font-size="25" x="1186.4" y="160.8">Lback</text>
  <path d="M 1314 255 L 1371 255 L 1440 60 L 1344 60 Q 1356.15 144.75 1314 159 Q 1323.6 163.8 1314 255 z" fill="rgb(255,217,194)" stroke="black"/>
  <text fill="rgb(9,33,173)" font-size="25" x="1331.6" y="160.8">Lfront</text>
</svg>
