<?xml version="1.0" encoding="utf-8" ?>
<svg xmlns="http://www.w3.org/2000/svg" xmlns:ev="http://www.w3.org/2001/xml-events" xmlns:xlink="http://www.w3.org/1999/xlink" baseProfile="tiny" height="426px" version="1.2" width="1872px">
  <defs/>
  <path d="M 60 132 L 183 132 Q 199.5 88.5 174 75 L 60 60 L 60 132 z" fill="rgb(255,217,194)" stroke="black"/>
  <text fill="rgb(9,33,173)" font-size="25" x="94.25" y="102.75">rbsleeve</text>
  <path d="M 243 132 L 357 117 Q 382.5 103.5 366 60 L 243 60 L 243 132 z" fill="rgb(255,217,194)" stroke="black"/>
  <text fill="rgb(9,33,173)" font-size="25" x="277.25" y="95.25">rfsleeve</text>
  <path d="M 426 366 L 513 366 Q 538.5 106.50000000000003 525 60 L 456 60 Q 470.7 141.75 426 153 Q 447.3 163.65 426 366 z" fill="rgb(255,217,194)" stroke="black"/>
  <text fill="rgb(9,33,173)" font-size="25" x="444.2" y="204.0">Rback</text>
  <path d="M 597 366 L 684 366 Q 662.7 163.65 684 153 Q 643.95 140.25 654 60 L 585 60 Q 571.5 106.5 597 366 z" fill="rgb(255,217,194)" stroke="black"/>
  <text fill="rgb(9,33,173)" font-size="25" x="615.8" y="204.0">Rfront</text>
  <path d="M 753 168 L 825 168 L 897 168 L 906 117 Q 878.7 105.9 891 60 L 852 60 Q 825.0 112.85184527234443 798 60 L 759 60 Q 771.3 105.9 744 117 L 753 168 z" fill="rgb(255,217,194)" stroke="black"/>
  <text fill="rgb(9,33,173)" font-size="25" x="800.0" y="111.66666666666667">up_back</text>
  <path d="M 975 165 L 1047 165 L 1119 165 L 1128 114 Q 1101.9 103.8 1113 60 L 1074 60 L 1047 96 L 1020 60 L 981 60 Q 992.1 103.8 966 114 L 975 165 z" fill="rgb(255,217,194)" stroke="black"/>
  <text fill="rgb(9,33,173)" font-size="25" x="1022.0" y="108.9">up_front</text>
  <path d="M 1200 366 L 1287 366 Q 1265.7 163.65 1287 153 Q 1242.3 141.75 1257 60 L 1188 60 Q 1174.5 106.5 1200 366 z" fill="rgb(255,217,194)" stroke="black"/>
  <text fill="rgb(9,33,173)" font-size="25" x="1218.8" y="204.0">Lback</text>
  <path d="M 1347 366 L 1434 366 Q 1459.5 106.50000000000003 1446 60 L 1377 60 Q 1387.05 140.25 1347 153 Q 1368.3 163.65 1347 366 z" fill="rgb(255,217,194)" stroke="black"/>
  <text fill="rgb(9,33,173)" font-size="25" x="1365.2" y="204.0">Lfront</text>
  <path d="M 1506 132 L 1620 117 Q 1645.5 103.5 1629 60 L 1506 60 L 1506 132 z" fill="rgb(255,217,194)" stroke="black"/>
  <text fill="rgb(9,33,173)" font-size="25" x="1540.25" y="95.25">lbsleeve</text>
  <path d="M 1689 132 L 1812 132 Q 1828.5 88.5 1803 75 L 1689 60 L 1689 132 z" fill="rgb(255,217,194)" stroke="black"/>
  <text fill="rgb(9,33,173)" font-size="25" x="1723.25" y="102.75">lfsleeve</text>
</svg>
