<?xml version="1.0" encoding="utf-8" ?>
<svg xmlns="http://www.w3.org/2000/svg" xmlns:ev="http://www.w3.org/2001/xml-events" xmlns:xlink="http://www.w3.org/1999/xlink" baseProfile="tiny" height="321px" version="1.2" width="1548px">
  <defs/>
  <path d="M 60 261 L 165 261 L 189 60 L 90 60 Q 104.7 141.75 60 153 Q 70.8 158.4 60 261 z" fill="rgb(255,217,194)" stroke="black"/>
  <text fill="rgb(9,33,173)" font-size="25" x="87.8" y="162.0">Rback</text>
  <path d="M 273 261 L 378 261 Q 367.2 158.4 378 153 Q 337.95 140.25 348 60 L 249 60 L 273 261 z" fill="rgb(255,217,194)" stroke="black"/>
  <text fill="rgb(9,33,173)" font-size="25" x="300.2" y="162.0">Rfront</text>
  <path d="M 438 69 L 477 69 L 516 69 L 516 60 L 438 60 L 438 69 z" fill="rgb(255,217,194)" stroke="black"/>
  <text fill="rgb(9,33,173)" font-size="25" x="452.0" y="68.4">wb_back</text>
  <path d="M 576 69 L 615 69 L 654 69 L 654 60 L 576 60 L 576 69 z" fill="rgb(255,217,194)" stroke="black"/>
  <text fill="rgb(9,33,173)" font-size="25" x="590.0" y="68.4">wb_front</text>
  <path d="M 714 162 L 882 162 L 882 123 Q 852.3 110.1 867 60 L 819 60 Q 798.0 86.48843368534895 777 60 L 729 60 Q 743.7 110.1 714 123 L 714 162 z" fill="rgb(255,217,194)" stroke="black"/>
  <text fill="rgb(9,33,173)" font-size="25" x="773.0" y="104.25">top_back</text>
  <path d="M 942 162 L 1110 162 L 1110 123 Q 1080.3 110.1 1095 60 L 1047 60 L 1026 66 L 1005 60 L 957 60 Q 971.7 110.1 942 123 L 942 162 z" fill="rgb(255,217,194)" stroke="black"/>
  <text fill="rgb(9,33,173)" font-size="25" x="1001.0" y="100.33333333333333">top_front</text>
  <path d="M 1194 261 L 1299 261 Q 1288.2 158.4 1299 153 Q 1254.3 141.75 1269 60 L 1170 60 L 1194 261 z" fill="rgb(255,217,194)" stroke="black"/>
  <text fill="rgb(9,33,173)" font-size="25" x="1221.2" y="162.0">Lback</text>
  <path d="M 1359 261 L 1464 261 L 1488 60 L 1389 60 Q 1399.05 140.25 1359 153 Q 1369.8 158.4 1359 261 z" fill="rgb(255,217,194)" stroke="black"/>
  <text fill="rgb(9,33,173)" font-size="25" x="1386.8" y="162.0">Lfront</text>
</svg>
