<?xml version="1.0" encoding="utf-8" ?>
<svg xmlns="http://www.w3.org/2000/svg" xmlns:ev="http://www.w3.org/2001/xml-events" xmlns:xlink="http://www.w3.org/1999/xlink" baseProfile="tiny" height="420px" version="1.2" width="1044px">
  <defs/>
  <path d="M 60 360 L 111 360 L 177 60 L 90 60 Q 105.9 144.0 60 156 Q 80.4 166.2 60 360 z" fill="rgb(255,217,194)" stroke="black"/>
  <text fill="rgb(9,33,173)" font-size="25" x="74.6" y="202.2">Rback</text>
  <path d="M 303 360 L 354 360 Q 333.6 166.20000000000002 354 156 Q 312.9 142.5 324 60 L 237 60 L 303 360 z" fill="rgb(255,217,194)" stroke="black"/>
  <text fill="rgb(9,33,173)" font-size="25" x="289.4" y="202.2">Rfront</text>
  <path d="M 414 66 L 453 66 L 492 66 L 492 60 L 414 60 L 414 66 z" fill="rgb(255,217,194)" stroke="black"/>
  <text fill="rgb(9,33,173)" font-size="25" x="428.0" y="66.6">wb_back</text>
  <path d="M 552 66 L 591 66 L 630 66 L 630 60 L 552 60 L 552 66 z" fill="rgb(255,217,194)" stroke="black"/>
  <text fill="rgb(9,33,173)" font-size="25" x="566.0" y="66.6">wb_front</text>
  <path d="M 756 360 L 807 360 Q 786.6 166.20000000000002 807 156 Q 761.1 144.0 777 60 L 690 60 L 756 360 z" fill="rgb(255,217,194)" stroke="black"/>
  <text fill="rgb(9,33,173)" font-size="25" x="742.4" y="202.2">Lback</text>
  <path d="M 867 360 L 918 360 L 984 60 L 897 60 Q 908.1 142.5 867 156 Q 887.4 166.2 867 360 z" fill="rgb(255,217,194)" stroke="black"/>
  <text fill="rgb(9,33,173)" font-size="25" x="881.6" y="202.2">Lfront</text>
</svg>
