<?xml version="1.0" encoding="utf-8" ?>
<svg xmlns="http://www.w3.org/2000/svg" xmlns:ev="http://www.w3.org/2001/xml-events" xmlns:xlink="http://www.w3.org/1999/xlink" baseProfile="tiny" height="270px" version="1.2" width="1008px">
  <defs/>
  <path d="M 60 210 L 111 210 L 168 60 L 90 60 Q 101.1 135.0 60 144 Q 66.6 147.3 60 210 z" fill="rgb(255,217,194)" stroke="black"/>
  <text fill="rgb(9,33,173)" font-size="25" x="72.8" y="139.8">Rback</text>
  <path d="M 285 210 L 336 210 Q 329.4 147.3 336 144 Q 299.1 133.5 306 60 L 228 60 L 285 210 z" fill="rgb(255,217,194)" stroke="black"/>
  <text fill="rgb(9,33,173)" font-size="25" x="273.2" y="139.8">Rfront</text>
  <path d="M 396 78 L 435 78 L 474 78 L 474 60 L 396 60 L 396 78 z" fill="rgb(255,217,194)" stroke="black"/>
  <text fill="rgb(9,33,173)" font-size="25" x="410.0" y="73.8">wb_back</text>
  <path d="M 534 78 L 573 78 L 612 78 L 612 60 L 534 60 L 534 78 z" fill="rgb(255,217,194)" stroke="black"/>
  <text fill="rgb(9,33,173)" font-size="25" x="548.0" y="73.8">wb_front</text>
  <path d="M 729 210 L 780 210 Q 773.4 147.3 780 144 Q 738.9 135.0 750 60 L 672 60 L 729 210 z" fill="rgb(255,217,194)" stroke="black"/>
  <text fill="rgb(9,33,173)" font-size="25" x="717.2" y="139.8">Lback</text>
  <path d="M 840 210 L 891 210 L 948 60 L 870 60 Q 876.9 133.5 840 144 Q 846.6 147.3 840 210 z" fill="rgb(255,217,194)" stroke="black"/>
  <text fill="rgb(9,33,173)" font-size="25" x="852.8" y="139.8">Lfront</text>
</svg>
