<?xml version="1.0" encoding="utf-8" ?>
<svg xmlns="http://www.w3.org/2000/svg" xmlns:ev="http://www.w3.org/2001/xml-events" xmlns:xlink="http://www.w3.org/1999/xlink" baseProfile="tiny" height="384px" version="1.2" width="972px">
  <defs/>
  <path d="M 60 324 Q 141.0 344.94752064549937 222 324 L 219 102 L 210 60 L 72 60 L 63 102 L 60 324 z" fill="rgb(255,217,194)" stroke="black"/>
  <text fill="rgb(9,33,173)" font-size="25" x="116.0" y="165.0">skirt_back</text>
  <path d="M 282 324 Q 363.0 374.9555947741645 444 324 L 441 102 L 432 60 L 294 60 L 285 102 L 282 324 z" fill="rgb(255,217,194)" stroke="black"/>
  <text fill="rgb(9,33,173)" font-size="25" x="338.0" y="165.0">skirt_front</text>
  <path d="M 522 168 L 660 168 L 678 108 Q 654.3 99.6 663 60 L 606 60 Q 591.0 119.80375813625109 576 60 L 519 60 Q 527.7 99.6 504 108 L 522 168 z" fill="rgb(255,217,194)" stroke="black"/>
  <text fill="rgb(9,33,173)" font-size="25" x="566.0" y="102.0">top_back</text>
  <path d="M 756 165 L 894 165 L 912 108 Q 888.3 99.6 897 60 L 840 60 L 825 75 L 810 60 L 753 60 Q 761.7 99.6 738 108 L 756 165 z" fill="rgb(255,217,194)" stroke="black"/>
  <text fill="rgb(9,33,173)" font-size="25" x="800.0" y="98.66666666666667">top_front</text>
</svg>
