<?xml version="1.0" encoding="utf-8" ?>
<svg xmlns="http://www.w3.org/2000/svg" xmlns:ev="http://www.w3.org/2001/xml-events" xmlns:xlink="http://www.w3.org/1999/xlink" baseProfile="tiny" height="294px" version="1.2" width="1176px">
  <defs/>
  <path d="M 60 126 L 177 126 Q 197.1 76.20000000000002 168 60 L 60 72 L 60 126 z" fill="rgb(255,217,194)" stroke="black"/>
  <text fill="rgb(9,33,173)" font-size="25" x="91.25" y="99.0">rbsleeve</text>
  <path d="M 237 114 L 345 126 Q 374.09999999999997 109.8 354 60 L 237 60 L 237 114 z" fill="rgb(255,217,194)" stroke="black"/>
  <text fill="rgb(9,33,173)" font-size="25" x="268.25" y="93.0">rfsleeve</text>
  <path d="M 414 234 L 558 234 L 543 126 Q 513.9 109.8 534 60 L 507 60 Q 486.0 151.9746518703679 465 60 L 438 60 Q 458.09999999999997 109.79999999999998 429 126 L 414 234 z" fill="rgb(255,217,194)" stroke="black"/>
  <text fill="rgb(9,33,173)" font-size="25" x="461.0" y="123.0">back</text>
  <path d="M 618 231 L 762 231 L 747 126 Q 717.9 109.8 738 60 L 711 60 L 690 78 L 669 60 L 642 60 Q 662.1 109.79999999999998 633 126 L 618 231 z" fill="rgb(255,217,194)" stroke="black"/>
  <text fill="rgb(9,33,173)" font-size="25" x="665.0" y="117.66666666666667">front</text>
  <path d="M 822 114 L 930 126 Q 959.1 109.8 939 60 L 822 60 L 822 114 z" fill="rgb(255,217,194)" stroke="black"/>
  <text fill="rgb(9,33,173)" font-size="25" x="853.25" y="93.0">lbsleeve</text>
  <path d="M 999 126 L 1116 126 Q 1136.1000000000001 76.20000000000002 1107 60 L 999 72 L 999 126 z" fill="rgb(255,217,194)" stroke="black"/>
  <text fill="rgb(9,33,173)" font-size="25" x="1030.25" y="99.0">lfsleeve</text>
</svg>
