<?xml version="1.0" encoding="utf-8" ?>
<svg xmlns="http://www.w3.org/2000/svg" xmlns:ev="http://www.w3.org/2001/xml-events" xmlns:xlink="http://www.w3.org/1999/xlink" baseProfile="tiny" height="237px" version="1.2" width="1416px">
  <defs/>
  <path d="M 60 177 L 153 177 L 177 60 L 90 60 Q 95.1 123.75 60 129 Q 64.8 131.4 60 177 z" fill="rgb(255,217,194)" stroke="black"/>
  <text fill="rgb(9,33,173)" font-size="25" x="83.0" y="123.6">Rback</text>
  <path d="M 261 177 L 354 177 Q 349.2 131.4 354 129 Q 322.35 122.25 324 60 L 237 60 L 261 177 z" fill="rgb(255,217,194)" stroke="black"/>
  <text fill="rgb(9,33,173)" font-size="25" x="281.0" y="123.6">Rfront</text>
  <path d="M 414 72 L 453 72 L 492 72 L 492 60 L 414 60 L 414 72 z" fill="rgb(255,217,194)" stroke="black"/>
  <text fill="rgb(9,33,173)" font-size="25" x="428.0" y="70.2">wb_back</text>
  <path d="M 552 72 L 591 72 L 630 72 L 630 60 L 552 60 L 552 72 z" fill="rgb(255,217,194)" stroke="black"/>
  <text fill="rgb(9,33,173)" font-size="25" x="566.0" y="70.2">wb_front</text>
  <path d="M 690 153 L 816 153 L 816 108 Q 793.1999999999999 98.39999999999999 804 60 L 786 60 Q 753.0 93.85694143872911 720 60 L 702 60 Q 712.8000000000001 98.39999999999999 690 108 L 690 153 z" fill="rgb(255,217,194)" stroke="black"/>
  <text fill="rgb(9,33,173)" font-size="25" x="728.0" y="98.25">top_back</text>
  <path d="M 876 153 L 1002 153 L 1002 108 Q 979.1999999999999 98.39999999999999 990 60 L 972 60 L 939 111 L 906 60 L 888 60 Q 898.8000000000001 98.39999999999999 876 108 L 876 153 z" fill="rgb(255,217,194)" stroke="black"/>
  <text fill="rgb(9,33,173)" font-size="25" x="914.0" y="100.0">top_front</text>
  <path d="M 1086 177 L 1179 177 Q 1174.2 131.4 1179 129 Q 1143.9 123.75 1149 60 L 1062 60 L 1086 177 z" fill="rgb(255,217,194)" stroke="black"/>
  <text fill="rgb(9,33,173)" font-size="25" x="1106.0" y="123.6">Lback</text>
  <path d="M 1239 177 L 1332 177 L 1356 60 L 1269 60 Q 1270.65 122.25 1239 129 Q 1243.8 131.4 1239 177 z" fill="rgb(255,217,194)" stroke="black"/>
  <text fill="rgb(9,33,173)" font-size="25" x="1262.0" y="123.6">Lfront</text>
</svg>
