<?xml version="1.0" encoding="utf-8" ?>
<svg xmlns="http://www.w3.org/2000/svg" xmlns:ev="http://www.w3.org/2001/xml-events" xmlns:xlink="http://www.w3.org/1999/xlink" baseProfile="tiny" height="330px" version="1.2" width="1824px">
  <defs/>
  <path d="M 60 132 L 192 132 Q 206.1 92.70000000000002 183 81 L 60 60 L 60 132 z" fill="rgb(255,217,194)" stroke="black"/>
  <text fill="rgb(9,33,173)" font-size="25" x="98.75" y="104.25">rbsleeve</text>
  <path d="M 252 132 L 375 111 Q 398.09999999999997 99.3 384 60 L 252 60 L 252 132 z" fill="rgb(255,217,194)" stroke="black"/>
  <text fill="rgb(9,33,173)" font-size="25" x="290.75" y="93.75">rfsleeve</text>
  <path d="M 444 270 L 507 270 Q 543.0 93.0 537 60 L 474 60 Q 488.7 141.75 444 153 Q 455.7 158.85 444 270 z" fill="rgb(255,217,194)" stroke="black"/>
  <text fill="rgb(9,33,173)" font-size="25" x="456.2" y="165.6">Rback</text>
  <path d="M 627 270 L 690 270 Q 678.3 158.85000000000002 690 153 Q 649.95 140.25 660 60 L 597 60 Q 591.0 93.0 627 270 z" fill="rgb(255,217,194)" stroke="black"/>
  <text fill="rgb(9,33,173)" font-size="25" x="627.8" y="165.6">Rfront</text>
  <path d="M 753 168 L 816 168 L 879 168 L 882 111 Q 858.9 99.3 873 60 L 837 60 Q 816.0 116.66492993164857 795 60 L 759 60 Q 773.1 99.29999999999998 750 111 L 753 168 z" fill="rgb(255,217,194)" stroke="black"/>
  <text fill="rgb(9,33,173)" font-size="25" x="791.0" y="110.33333333333333">up_back</text>
  <path d="M 945 165 L 1008 165 L 1071 165 L 1074 111 Q 1050.8999999999999 99.3 1065 60 L 1029 60 L 1008 108 L 987 60 L 951 60 Q 965.1 99.29999999999998 942 111 L 945 165 z" fill="rgb(255,217,194)" stroke="black"/>
  <text fill="rgb(9,33,173)" font-size="25" x="983.0" y="109.5">up_front</text>
  <path d="M 1164 270 L 1227 270 Q 1215.3 158.85000000000002 1227 153 Q 1182.3 141.75 1197 60 L 1134 60 Q 1128.0 93.0 1164 270 z" fill="rgb(255,217,194)" stroke="black"/>
  <text fill="rgb(9,33,173)" font-size="25" x="1164.8" y="165.6">Lback</text>
  <path d="M 1287 270 L 1350 270 Q 1386.0 93.0 1380 60 L 1317 60 Q 1327.05 140.25 1287 153 Q 1298.7 158.85 1287 270 z" fill="rgb(255,217,194)" stroke="black"/>
  <text fill="rgb(9,33,173)" font-size="25" x="1299.2" y="165.6">Lfront</text>
  <path d="M 1440 132 L 1563 111 Q 1586.1000000000001 99.3 1572 60 L 1440 60 L 1440 132 z" fill="rgb(255,217,194)" stroke="black"/>
  <text fill="rgb(9,33,173)" font-size="25" x="1478.75" y="93.75">lbsleeve</text>
  <path d="M 1632 132 L 1764 132 Q 1778.1000000000001 92.70000000000002 1755 81 L 1632 60 L 1632 132 z" fill="rgb(255,217,194)" stroke="black"/>
  <text fill="rgb(9,33,173)" font-size="25" x="1670.75" y="104.25">lfsleeve</text>
</svg>
