<?xml version="1.0" encoding="utf-8" ?>
<svg xmlns="http://www.w3.org/2000/svg" xmlns:ev="http://www.w3.org/2001/xml-events" xmlns:xlink="http://www.w3.org/1999/xlink" baseProfile="tiny" height="282px" version="1.2" width="1320px">
  <defs/>
  <path d="M 60 108 L 93 108 Q 105.9 70.80000000000001 84 60 L 60 60 L 60 108 z" fill="rgb(255,217,194)" stroke="black"/>
  <text fill="rgb(9,33,173)" font-size="25" x="49.25" y="87.0">rbsleeve</text>
  <text fill="rgb(245,96,66)" font-size="25" x="52.44730622922282" y="60.700726280796324">0</text>
  <text fill="rgb(245,96,66)" font-size="25" x="80.88188523477969" y="60.36766711438845">1</text>
  <text fill="rgb(245,96,66)" font-size="25" x="91.07822020986157" y="116.94012186862281">2</text>
  <text fill="rgb(245,96,66)" font-size="25" x="52.44730622922282" y="117.29927371920367">3</text>
  <text fill="rgb(50,179,101)" font-size="20" x="71.96670354346529" y="117.97817113029645">0</text>
  <text fill="rgb(50,179,101)" font-size="20" x="88.5" y="89.0">1</text>
  <text fill="rgb(50,179,101)" font-size="20" x="66.53329645653471" y="60.02182886970356">2</text>
  <text fill="rgb(50,179,101)" font-size="20" x="50.0" y="89.0">3</text>
  <path d="M 153 108 L 177 108 Q 198.89999999999998 97.19999999999999 186 60 L 153 60 L 153 108 z" fill="rgb(255,217,194)" stroke="black"/>
  <text fill="rgb(9,33,173)" font-size="25" x="142.25" y="87.0">rfsleeve</text>
  <text fill="rgb(245,96,66)" font-size="25" x="145.44730622922282" y="60.700726280796324">0</text>
  <text fill="rgb(245,96,66)" font-size="25" x="184.07822020986157" y="61.05987813137718">1</text>
  <text fill="rgb(245,96,66)" font-size="25" x="173.8818852347797" y="117.63233288561155">2</text>
  <text fill="rgb(245,96,66)" font-size="25" x="145.44730622922282" y="117.29927371920367">3</text>
  <text fill="rgb(50,179,101)" font-size="20" x="159.5332964565347" y="117.97817113029645">0</text>
  <text fill="rgb(50,179,101)" font-size="20" x="181.5" y="89.0">1</text>
  <text fill="rgb(50,179,101)" font-size="20" x="164.9667035434653" y="60.02182886970356">2</text>
  <text fill="rgb(50,179,101)" font-size="20" x="143.0" y="89.0">3</text>
  <path d="M 246 222 Q 345.0 241.8 444 222 L 411 102 L 396 60 L 294 60 L 279 102 L 246 222 z" fill="rgb(255,217,194)" stroke="black"/>
  <text fill="rgb(9,33,173)" font-size="25" x="320.0" y="131.0">skirt_back</text>
  <text fill="rgb(245,96,66)" font-size="25" x="394.0" y="61.0">0</text>
  <text fill="rgb(245,96,66)" font-size="25" x="286.0" y="61.0">1</text>
  <text fill="rgb(245,96,66)" font-size="25" x="269.34795803591453" y="105.16737740808755">2</text>
  <text fill="rgb(245,96,66)" font-size="25" x="237.37408852881265" y="230.44278462920818">3</text>
  <text fill="rgb(245,96,66)" font-size="25" x="442.62591147118735" y="230.44278462920818">4</text>
  <text fill="rgb(245,96,66)" font-size="25" x="410.65204196408547" y="105.16737740808755">5</text>
  <text fill="rgb(50,179,101)" font-size="20" x="340.0" y="232.0">0</text>
  <text fill="rgb(50,179,101)" font-size="20" x="427.1228100432702" y="168.90515807843863">1</text>
  <text fill="rgb(50,179,101)" font-size="20" x="402.3978351372187" y="82.86840595813199">2</text>
  <text fill="rgb(50,179,101)" font-size="20" x="340.0" y="60.0">3</text>
  <text fill="rgb(50,179,101)" font-size="20" x="277.6021648627813" y="82.86840595813199">4</text>
  <text fill="rgb(50,179,101)" font-size="20" x="252.87718995672978" y="168.90515807843863">5</text>
  <path d="M 504 222 Q 603.0 241.8 702 222 L 669 102 L 654 60 L 552 60 L 537 102 L 504 222 z" fill="rgb(255,217,194)" stroke="black"/>
  <text fill="rgb(9,33,173)" font-size="25" x="578.0" y="131.0">skirt_front</text>
  <text fill="rgb(245,96,66)" font-size="25" x="544.0" y="61.0">0</text>
  <text fill="rgb(245,96,66)" font-size="25" x="652.0" y="61.0">1</text>
  <text fill="rgb(245,96,66)" font-size="25" x="668.6520419640855" y="105.16737740808755">2</text>
  <text fill="rgb(245,96,66)" font-size="25" x="700.6259114711874" y="230.44278462920818">3</text>
  <text fill="rgb(245,96,66)" font-size="25" x="495.37408852881265" y="230.44278462920818">4</text>
  <text fill="rgb(245,96,66)" font-size="25" x="527.3479580359145" y="105.16737740808755">5</text>
  <text fill="rgb(50,179,101)" font-size="20" x="598.0" y="232.0">0</text>
  <text fill="rgb(50,179,101)" font-size="20" x="685.1228100432702" y="168.90515807843863">1</text>
  <text fill="rgb(50,179,101)" font-size="20" x="660.3978351372187" y="82.86840595813199">2</text>
  <text fill="rgb(50,179,101)" font-size="20" x="598.0" y="60.0">3</text>
  <text fill="rgb(50,179,101)" font-size="20" x="535.6021648627813" y="82.86840595813199">4</text>
  <text fill="rgb(50,179,101)" font-size="20" x="510.8771899567298" y="168.90515807843863">5</text>
  <path d="M 774 168 L 876 168 L 888 111 Q 864.9 99.3 879 60 L 849 60 Q 825.0 74.4 801 60 L 771 60 Q 785.1 99.29999999999998 762 111 L 774 168 z" fill="rgb(255,217,194)" stroke="black"/>
  <text fill="rgb(9,33,173)" font-size="25" x="800.0" y="102.75">top_back</text>
  <text fill="rgb(245,96,66)" font-size="25" x="846.5843454951696" y="60.71967777362537">0</text>
  <text fill="rgb(245,96,66)" font-size="25" x="878.0266844194681" y="62.03591285789153">1</text>
  <text fill="rgb(245,96,66)" font-size="25" x="887.9221378775424" y="116.8789531924183">2</text>
  <text fill="rgb(245,96,66)" font-size="25" x="873.9929531080286" y="177.00527548280292">3</text>
  <text fill="rgb(245,96,66)" font-size="25" x="766.0070468919714" y="177.00527548280292">4</text>
  <text fill="rgb(245,96,66)" font-size="25" x="752.0778621224576" y="116.8789531924183">5</text>
  <text fill="rgb(245,96,66)" font-size="25" x="761.9733155805319" y="62.03591285789153">6</text>
  <text fill="rgb(245,96,66)" font-size="25" x="793.4156545048304" y="60.71967777362537">7</text>
  <text fill="rgb(50,179,101)" font-size="20" x="820.0" y="178.0">0</text>
  <text fill="rgb(50,179,101)" font-size="20" x="881.101223591158" y="147.36006382014966">1</text>
  <text fill="rgb(50,179,101)" font-size="20" x="883.357951181509" y="89.31665291732475">2</text>
  <text fill="rgb(50,179,101)" font-size="20" x="862.5017033506404" y="61.43095620030884">3</text>
  <text fill="rgb(50,179,101)" font-size="20" x="820.0" y="60.0">4</text>
  <text fill="rgb(50,179,101)" font-size="20" x="777.4982966493596" y="61.43095620030884">5</text>
  <text fill="rgb(50,179,101)" font-size="20" x="756.642048818491" y="89.31665291732475">6</text>
  <text fill="rgb(50,179,101)" font-size="20" x="758.898776408842" y="147.36006382014966">7</text>
  <path d="M 960 165 L 1062 165 L 1074 108 Q 1052.1 97.19999999999999 1065 60 L 1035 60 L 1011 93 L 987 60 L 957 60 Q 969.9000000000001 97.19999999999999 948 108 L 960 165 z" fill="rgb(255,217,194)" stroke="black"/>
  <text fill="rgb(9,33,173)" font-size="25" x="986.0" y="100.66666666666667">top_front</text>
  <text fill="rgb(245,96,66)" font-size="25" x="1006.0" y="93.0">0</text>
  <text fill="rgb(245,96,66)" font-size="25" x="979.3132083784928" y="60.78322981624573">1</text>
  <text fill="rgb(245,96,66)" font-size="25" x="947.8990889915316" y="62.139488000265885">2</text>
  <text fill="rgb(245,96,66)" font-size="25" x="938.0659300150008" y="113.80929190230144">3</text>
  <text fill="rgb(245,96,66)" font-size="25" x="951.9810914670499" y="173.98574852062703">4</text>
  <text fill="rgb(245,96,66)" font-size="25" x="1060.0189085329503" y="173.98574852062703">5</text>
  <text fill="rgb(245,96,66)" font-size="25" x="1073.934069984999" y="113.80929190230144">6</text>
  <text fill="rgb(245,96,66)" font-size="25" x="1064.1009110084683" y="62.139488000265885">7</text>
  <text fill="rgb(245,96,66)" font-size="25" x="1032.6867916215072" y="60.78322981624573">8</text>
  <text fill="rgb(50,179,101)" font-size="20" x="1006.0" y="175.0">0</text>
  <text fill="rgb(50,179,101)" font-size="20" x="1067.1321589244442" y="144.31518429647804">1</text>
  <text fill="rgb(50,179,101)" font-size="20" x="1069.3688989145771" y="87.86253643591078">2</text>
  <text fill="rgb(50,179,101)" font-size="20" x="1048.5964776024898" y="61.52647889674056">3</text>
  <text fill="rgb(50,179,101)" font-size="20" x="1020.4659269572429" y="77.15037883930765">4</text>
  <text fill="rgb(50,179,101)" font-size="20" x="991.5340730427571" y="77.15037883930765">5</text>
  <text fill="rgb(50,179,101)" font-size="20" x="963.4035223975102" y="61.52647889674056">6</text>
  <text fill="rgb(50,179,101)" font-size="20" x="942.631101085423" y="87.86253643591078">7</text>
  <text fill="rgb(50,179,101)" font-size="20" x="944.8678410755558" y="144.31518429647804">8</text>
  <path d="M 1134 108 L 1158 108 Q 1179.9 97.19999999999999 1167 60 L 1134 60 L 1134 108 z" fill="rgb(255,217,194)" stroke="black"/>
  <text fill="rgb(9,33,173)" font-size="25" x="1123.25" y="87.0">lbsleeve</text>
  <text fill="rgb(245,96,66)" font-size="25" x="1126.447306229223" y="60.700726280796324">0</text>
  <text fill="rgb(245,96,66)" font-size="25" x="1165.0782202098617" y="61.05987813137718">1</text>
  <text fill="rgb(245,96,66)" font-size="25" x="1154.8818852347797" y="117.63233288561155">2</text>
  <text fill="rgb(245,96,66)" font-size="25" x="1126.447306229223" y="117.29927371920367">3</text>
  <text fill="rgb(50,179,101)" font-size="20" x="1140.5332964565348" y="117.97817113029645">0</text>
  <text fill="rgb(50,179,101)" font-size="20" x="1162.5" y="89.0">1</text>
  <text fill="rgb(50,179,101)" font-size="20" x="1145.9667035434652" y="60.02182886970356">2</text>
  <text fill="rgb(50,179,101)" font-size="20" x="1124.0" y="89.0">3</text>
  <path d="M 1227 108 L 1260 108 Q 1272.9 70.80000000000001 1251 60 L 1227 60 L 1227 108 z" fill="rgb(255,217,194)" stroke="black"/>
  <text fill="rgb(9,33,173)" font-size="25" x="1216.25" y="87.0">lfsleeve</text>
  <text fill="rgb(245,96,66)" font-size="25" x="1219.447306229223" y="60.700726280796324">0</text>
  <text fill="rgb(245,96,66)" font-size="25" x="1247.8818852347797" y="60.36766711438845">1</text>
  <text fill="rgb(245,96,66)" font-size="25" x="1258.0782202098617" y="116.94012186862281">2</text>
  <text fill="rgb(245,96,66)" font-size="25" x="1219.447306229223" y="117.29927371920367">3</text>
  <text fill="rgb(50,179,101)" font-size="20" x="1238.9667035434652" y="117.97817113029645">0</text>
  <text fill="rgb(50,179,101)" font-size="20" x="1255.5" y="89.0">1</text>
  <text fill="rgb(50,179,101)" font-size="20" x="1233.5332964565348" y="60.02182886970356">2</text>
  <text fill="rgb(50,179,101)" font-size="20" x="1217.0" y="89.0">3</text>
</svg>
