<?xml version="1.0" encoding="utf-8" ?>
<svg xmlns="http://www.w3.org/2000/svg" xmlns:ev="http://www.w3.org/2001/xml-events" xmlns:xlink="http://www.w3.org/1999/xlink" baseProfile="tiny" height="330px" version="1.2" width="1008px">
  <defs/>
  <path d="M 60 270 L 159 270 L 168 60 L 90 60 Q 96.3 126.0 60 132 Q 73.8 138.9 60 270 z" fill="rgb(255,217,194)" stroke="black"/>
  <text fill="rgb(9,33,173)" font-size="25" x="82.4" y="161.4">Rback</text>
  <path d="M 237 270 L 336 270 Q 322.2 138.9 336 132 Q 303.3 124.5 306 60 L 228 60 L 237 270 z" fill="rgb(255,217,194)" stroke="black"/>
  <text fill="rgb(9,33,173)" font-size="25" x="263.6" y="161.4">Rfront</text>
  <path d="M 396 72 L 435 72 L 474 72 L 474 60 L 396 60 L 396 72 z" fill="rgb(255,217,194)" stroke="black"/>
  <text fill="rgb(9,33,173)" font-size="25" x="410.0" y="70.2">wb_back</text>
  <path d="M 534 72 L 573 72 L 612 72 L 612 60 L 534 60 L 534 72 z" fill="rgb(255,217,194)" stroke="black"/>
  <text fill="rgb(9,33,173)" font-size="25" x="548.0" y="70.2">wb_front</text>
  <path d="M 681 270 L 780 270 Q 766.2 138.9 780 132 Q 743.7 126.0 750 60 L 672 60 L 681 270 z" fill="rgb(255,217,194)" stroke="black"/>
  <text fill="rgb(9,33,173)" font-size="25" x="707.6" y="161.4">Lback</text>
  <path d="M 840 270 L 939 270 L 948 60 L 870 60 Q 872.7 124.5 840 132 Q 853.8 138.9 840 270 z" fill="rgb(255,217,194)" stroke="black"/>
  <text fill="rgb(9,33,173)" font-size="25" x="862.4" y="161.4">Lfront</text>
</svg>
