<?xml version="1.0" encoding="utf-8" ?>
<svg xmlns="http://www.w3.org/2000/svg" xmlns:ev="http://www.w3.org/2001/xml-events" xmlns:xlink="http://www.w3.org/1999/xlink" baseProfile="tiny" height="276px" version="1.2" width="900px">
  <defs/>
  <path d="M 66 216 Q 135.0 231.62215451425604 204 216 L 210 102 L 192 60 L 78 60 L 60 102 L 66 216 z" fill="rgb(255,217,194)" stroke="black"/>
  <text fill="rgb(9,33,173)" font-size="25" x="110.0" y="129.0">skirt_back</text>
  <path d="M 276 216 Q 345.0 202.0266423233813 414 216 L 420 102 L 402 60 L 288 60 L 270 102 L 276 216 z" fill="rgb(255,217,194)" stroke="black"/>
  <text fill="rgb(9,33,173)" font-size="25" x="320.0" y="129.0">skirt_front</text>
  <path d="M 498 168 L 612 168 L 630 111 Q 606.0 100.5 618 60 L 582 60 Q 555.0 80.31539372081863 528 60 L 492 60 Q 504.0 100.49999999999999 480 111 L 498 168 z" fill="rgb(255,217,194)" stroke="black"/>
  <text fill="rgb(9,33,173)" font-size="25" x="530.0" y="102.75">top_back</text>
  <path d="M 708 165 L 822 165 L 840 111 Q 816.0 100.5 828 60 L 792 60 L 765 93 L 738 60 L 702 60 Q 714.0 100.49999999999999 690 111 L 708 165 z" fill="rgb(255,217,194)" stroke="black"/>
  <text fill="rgb(9,33,173)" font-size="25" x="740.0" y="101.33333333333333">top_front</text>
</svg>
