<?xml version="1.0" encoding="utf-8" ?>
<svg xmlns="http://www.w3.org/2000/svg" xmlns:ev="http://www.w3.org/2001/xml-events" xmlns:xlink="http://www.w3.org/1999/xlink" baseProfile="tiny" height="276px" version="1.2" width="1788px">
  <defs/>
  <path d="M 60 144 L 177 144 Q 194.7 98.4 168 84 L 60 60 L 60 144 z" fill="rgb(255,217,194)" stroke="black"/>
  <text fill="rgb(9,33,173)" font-size="25" x="91.25" y="111.0">rbsleeve</text>
  <path d="M 237 144 L 345 120 Q 371.7 105.6 354 60 L 237 60 L 237 144 z" fill="rgb(255,217,194)" stroke="black"/>
  <text fill="rgb(9,33,173)" font-size="25" x="268.25" y="99.0">rfsleeve</text>
  <path d="M 414 216 L 501 216 Q 513.9 83.7 507 60 L 444 60 Q 458.7 141.75 414 153 Q 420.3 156.15 414 216 z" fill="rgb(255,217,194)" stroke="black"/>
  <text fill="rgb(9,33,173)" font-size="25" x="431.0" y="144.0">Rback</text>
  <path d="M 573 216 L 660 216 Q 653.7 156.15 660 153 Q 619.95 140.25 630 60 L 567 60 Q 560.1 83.7 573 216 z" fill="rgb(255,217,194)" stroke="black"/>
  <text fill="rgb(9,33,173)" font-size="25" x="593.0" y="144.0">Rfront</text>
  <path d="M 726 168 L 792 168 L 858 168 L 864 120 Q 836.4 106.8 852 60 L 825 60 Q 792.0 75.24832345919874 759 60 L 732 60 Q 747.6 106.8 720 120 L 726 168 z" fill="rgb(255,217,194)" stroke="black"/>
  <text fill="rgb(9,33,173)" font-size="25" x="767.0" y="112.33333333333333">up_back</text>
  <path d="M 930 165 L 996 165 L 1062 165 L 1068 120 Q 1040.4 106.8 1056 60 L 1029 60 L 996 99 L 963 60 L 936 60 Q 951.6 106.8 924 120 L 930 165 z" fill="rgb(255,217,194)" stroke="black"/>
  <text fill="rgb(9,33,173)" font-size="25" x="971.0" y="110.4">up_front</text>
  <path d="M 1134 216 L 1221 216 Q 1214.7 156.15 1221 153 Q 1176.3 141.75 1191 60 L 1128 60 Q 1121.1000000000001 83.7 1134 216 z" fill="rgb(255,217,194)" stroke="black"/>
  <text fill="rgb(9,33,173)" font-size="25" x="1154.0" y="144.0">Lback</text>
  <path d="M 1281 216 L 1368 216 Q 1380.8999999999999 83.7 1374 60 L 1311 60 Q 1321.05 140.25 1281 153 Q 1287.3 156.15 1281 216 z" fill="rgb(255,217,194)" stroke="black"/>
  <text fill="rgb(9,33,173)" font-size="25" x="1298.0" y="144.0">Lfront</text>
  <path d="M 1434 144 L 1542 120 Q 1568.7 105.6 1551 60 L 1434 60 L 1434 144 z" fill="rgb(255,217,194)" stroke="black"/>
  <text fill="rgb(9,33,173)" font-size="25" x="1465.25" y="99.0">lbsleeve</text>
  <path d="M 1611 144 L 1728 144 Q 1745.7 98.4 1719 84 L 1611 60 L 1611 144 z" fill="rgb(255,217,194)" stroke="black"/>
  <text fill="rgb(9,33,173)" font-size="25" x="1642.25" y="111.0">lfsleeve</text>
</svg>
