<?xml version="1.0" encoding="utf-8" ?>
<svg xmlns="http://www.w3.org/2000/svg" xmlns:ev="http://www.w3.org/2001/xml-events" xmlns:xlink="http://www.w3.org/1999/xlink" baseProfile="tiny" height="390px" version="1.2" width="1020px">
  <defs/>
  <path d="M 60 330 L 129 330 L 171 60 L 90 60 Q 97.5 128.25 60 135 Q 79.5 144.75 60 330 z" fill="rgb(255,217,194)" stroke="black"/>
  <text fill="rgb(9,33,173)" font-size="25" x="77.0" y="186.0">Rback</text>
  <path d="M 273 330 L 342 330 Q 322.5 144.75 342 135 Q 308.25 126.75 312 60 L 231 60 L 273 330 z" fill="rgb(255,217,194)" stroke="black"/>
  <text fill="rgb(9,33,173)" font-size="25" x="275.0" y="186.0">Rfront</text>
  <path d="M 402 72 L 441 72 L 480 72 L 480 60 L 402 60 L 402 72 z" fill="rgb(255,217,194)" stroke="black"/>
  <text fill="rgb(9,33,173)" font-size="25" x="416.0" y="70.2">wb_back</text>
  <path d="M 540 72 L 579 72 L 618 72 L 618 60 L 540 60 L 540 72 z" fill="rgb(255,217,194)" stroke="black"/>
  <text fill="rgb(9,33,173)" font-size="25" x="554.0" y="70.2">wb_front</text>
  <path d="M 720 330 L 789 330 Q 769.5 144.75 789 135 Q 751.5 128.25 759 60 L 678 60 L 720 330 z" fill="rgb(255,217,194)" stroke="black"/>
  <text fill="rgb(9,33,173)" font-size="25" x="722.0" y="186.0">Lback</text>
  <path d="M 849 330 L 918 330 L 960 60 L 879 60 Q 882.75 126.75 849 135 Q 868.5 144.75 849 330 z" fill="rgb(255,217,194)" stroke="black"/>
  <text fill="rgb(9,33,173)" font-size="25" x="866.0" y="186.0">Lfront</text>
</svg>
