<?xml version="1.0" encoding="utf-8" ?>
<svg xmlns="http://www.w3.org/2000/svg" xmlns:ev="http://www.w3.org/2001/xml-events" xmlns:xlink="http://www.w3.org/1999/xlink" baseProfile="tiny" height="258px" version="1.2" width="924px">
  <defs/>
  <path d="M 60 117 L 120 117 Q 135.3 75.60000000000001 111 63 L 60 60 L 60 117 z" fill="rgb(255,217,194)" stroke="black"/>
  <text fill="rgb(9,33,173)" font-size="25" x="62.75" y="92.25">rbsleeve</text>
  <path d="M 180 117 L 231 114 Q 255.29999999999998 101.39999999999999 240 60 L 180 60 L 180 117 z" fill="rgb(255,217,194)" stroke="black"/>
  <text fill="rgb(9,33,173)" font-size="25" x="182.75" y="90.75">rfsleeve</text>
  <path d="M 300 198 L 432 198 L 426 117 Q 399.59999999999997 104.7 414 60 L 381 60 Q 366.0 98.95518159996156 351 60 L 318 60 Q 332.40000000000003 104.7 306 117 L 300 198 z" fill="rgb(255,217,194)" stroke="black"/>
  <text fill="rgb(9,33,173)" font-size="25" x="341.0" y="111.75">back</text>
  <path d="M 492 198 L 624 198 L 618 114 Q 592.8 102.6 606 60 L 573 60 L 558 72 L 543 60 L 510 60 Q 523.2 102.6 498 114 L 492 198 z" fill="rgb(255,217,194)" stroke="black"/>
  <text fill="rgb(9,33,173)" font-size="25" x="533.0" y="107.0">front</text>
  <path d="M 684 117 L 735 114 Q 759.3000000000001 101.39999999999999 744 60 L 684 60 L 684 117 z" fill="rgb(255,217,194)" stroke="black"/>
  <text fill="rgb(9,33,173)" font-size="25" x="686.75" y="90.75">lbsleeve</text>
  <path d="M 804 117 L 864 117 Q 879.3000000000001 75.60000000000001 855 63 L 804 60 L 804 117 z" fill="rgb(255,217,194)" stroke="black"/>
  <text fill="rgb(9,33,173)" font-size="25" x="806.75" y="92.25">lfsleeve</text>
</svg>
