<?xml version="1.0" encoding="utf-8" ?>
<svg xmlns="http://www.w3.org/2000/svg" xmlns:ev="http://www.w3.org/2001/xml-events" xmlns:xlink="http://www.w3.org/1999/xlink" baseProfile="tiny" height="294px" version="1.2" width="1104px">
  <defs/>
  <path d="M 60 132 L 150 132 Q 170.4 76.8 138 60 L 60 72 L 60 132 z" fill="rgb(255,217,194)" stroke="black"/>
  <text fill="rgb(9,33,173)" font-size="25" x="77.0" y="102.0">rbsleeve</text>
  <path d="M 210 120 L 288 132 Q 320.40000000000003 115.2 300 60 L 210 60 L 210 120 z" fill="rgb(255,217,194)" stroke="black"/>
  <text fill="rgb(9,33,173)" font-size="25" x="227.0" y="96.0">rfsleeve</text>
  <path d="M 366 234 L 516 234 L 522 132 Q 489.59999999999997 115.2 510 60 L 465 60 Q 441.0 198.96544241556398 417 60 L 372 60 Q 392.40000000000003 115.2 360 132 L 366 234 z" fill="rgb(255,217,194)" stroke="black"/>
  <text fill="rgb(9,33,173)" font-size="25" x="416.0" y="124.5">back</text>
  <path d="M 588 234 L 738 234 L 744 132 Q 711.6 115.2 732 60 L 687 60 L 663 129 L 639 60 L 594 60 Q 614.4 115.2 582 132 L 588 234 z" fill="rgb(255,217,194)" stroke="black"/>
  <text fill="rgb(9,33,173)" font-size="25" x="638.0" y="125.33333333333333">front</text>
  <path d="M 804 120 L 882 132 Q 914.4 115.2 894 60 L 804 60 L 804 120 z" fill="rgb(255,217,194)" stroke="black"/>
  <text fill="rgb(9,33,173)" font-size="25" x="821.0" y="96.0">lbsleeve</text>
  <path d="M 954 132 L 1044 132 Q 1064.3999999999999 76.8 1032 60 L 954 72 L 954 132 z" fill="rgb(255,217,194)" stroke="black"/>
  <text fill="rgb(9,33,173)" font-size="25" x="971.0" y="102.0">lfsleeve</text>
</svg>
