<?xml version="1.0" encoding="utf-8" ?>
<svg xmlns="http://www.w3.org/2000/svg" xmlns:ev="http://www.w3.org/2001/xml-events" xmlns:xlink="http://www.w3.org/1999/xlink" baseProfile="full" height="336.0px" version="1.1" width="2432.0px">
  <defs/>
  <path d="M 60 162 L 228 162 Q 227.8322941660881 161.65030226111412 213 129 Q 185.1569448709488 112.35549259185791 204 60 Q 202.5070551931858 59.526345670223236 165 60 Q 163.2820611242205 58.70726015791297 144 102 Q 146.9219503439963 100.76238943263888 123 63 Q 122.79879878461361 63.53573660552502 84 60 Q 102.96715754270554 110.9393001794815 72 129 Q 71.57355789095163 128.7432899773121 60 162 z" fill="rgb(255,217,194)" stroke="black"/>
  <path d="M 288 162 L 471 162 Q 471.2033061683178 161.66321070492268 453 138 Q 418.03439551591873 118.52164953947067 441 60 Q 441.4931469261646 62.49244397878647 399 60 Q 382.8137961924076 112.63257122039795 360 60 Q 359.92100912332535 61.78711116313934 318 60 Q 339.93961626291275 117.66454911231995 306 135 Q 305.4883947148919 136.21636445447803 288 162 z" fill="rgb(255,217,194)" stroke="black"/>
  <path d="M 531 132 Q 531.1438345983624 132.8479280769825 594 132 Q 610.0255585312843 85.63330453634262 582 69 L 531 60 L 531 132 z" fill="rgb(255,217,194)" stroke="black"/>
  <path d="M 684.5 132.0 Q 685.0099202878773 131.3841290473938 735.5 132.0 Q 764.8898069262505 117.83920937776566 750.5 63.0 Q 749.5734625011683 63.52557901293039 684.5 60.0 Q 683.4657707810402 59.65803283452988 684.5 132.0 z" fill="rgb(255,217,194)" stroke="black"/>
  <path d="M 838.75 132.0 Q 839.328880507499 131.60635936260223 889.75 132.0 Q 922.2607508599758 115.73591476678848 904.75 60.0 Q 903.7304720580578 61.48326274752617 838.75 60.0 L 838.75 132.0 z" fill="rgb(255,217,194)" stroke="black"/>
  <path d="M 993.0 132.0 L 1059.0 132.0 Q 1075.0675898194313 83.61546850204468 1047.0 69.0 Q 1046.0030423551798 68.10940220206976 993.0 60.0 L 993.0 132.0 z" fill="rgb(255,217,194)" stroke="black"/>
  <path d="M 1148.0 75.0 L 1187.0 75.0 Q 1188.0259964577854 74.51696366071701 1226.0 75.0 Q 1225.3157805502415 75.10540522634983 1226.0 60.0 L 1148.0 60.0 Q 1148.350687429309 59.995738081634045 1148.0 75.0 z" fill="rgb(255,217,194)" stroke="black"/>
  <path d="M 1302.0 75.0 Q 1302.130491849035 74.46595428138971 1338.0 75.0 Q 1337.9615419842303 74.41279104351997 1377.0 75.0 Q 1376.7319226861 74.87593987584114 1377.0 63.0 L 1302.0 60.0 Q 1303.0086116194725 59.44720644503832 1302.0 75.0 z" fill="rgb(255,217,194)" stroke="black"/>
  <path d="M 1444.2 276.0 Q 1443.5613135740161 277.3632161691785 1558.2 276.0 L 1573.2 60.0 Q 1572.3416906565428 62.16216225922108 1471.2 60.0 Q 1478.048942577839 124.59299451112747 1444.2 135.0 Q 1458.3617620289326 143.32391548901796 1444.2 276.0 z" fill="rgb(255,217,194)" stroke="black"/>
  <path d="M 1695.2 276.0 Q 1696.1547151997686 277.434542119503 1809.2 276.0 Q 1791.2781141072512 150.79855643212795 1806.2 141.0 Q 1768.0573025763035 132.63417617976665 1776.2 60.0 Q 1774.4138545997441 59.68192346021533 1683.2 60.0 Q 1680.5017772473395 63.05465407669544 1695.2 276.0 z" fill="rgb(255,217,194)" stroke="black"/>
  <path d="M 1958.0 273.0 L 2072.0 273.0 Q 2056.880808353424 136.9834384918213 2072.0 129.0 Q 2040.0520296096802 121.84623992443085 2042.0 60.0 Q 2038.65570198372 61.09940166771412 1949.0 60.0 Q 1949.060692070052 64.72471946664155 1958.0 273.0 z" fill="rgb(255,217,194)" stroke="black"/>
  <path d="M 2193.6 273.0 Q 2191.476631312072 273.6949695982039 2304.6 273.0 L 2322.6 60.0 Q 2322.0818472638725 61.76110517978668 2220.6 60.0 Q 2230.1672357082366 126.19690829515457 2193.6 132.0 Q 2209.702531403303 139.4832793660462 2193.6 273.0 z" fill="rgb(255,217,194)" stroke="black"/>
</svg>
