<?xml version="1.0" encoding="utf-8" ?>
<svg xmlns="http://www.w3.org/2000/svg" xmlns:ev="http://www.w3.org/2001/xml-events" xmlns:xlink="http://www.w3.org/1999/xlink" baseProfile="tiny" height="282px" version="1.2" width="1572px">
  <defs/>
  <path d="M 60 135 L 141 135 Q 164.7 78.9 132 60 L 60 63 L 60 135 z" fill="rgb(255,217,194)" stroke="black"/>
  <text fill="rgb(9,33,173)" font-size="25" x="73.25" y="101.25">rbsleeve</text>
  <path d="M 201 132 L 273 135 Q 305.7 116.1 282 60 L 201 60 L 201 132 z" fill="rgb(255,217,194)" stroke="black"/>
  <text fill="rgb(9,33,173)" font-size="25" x="214.25" y="99.75">rfsleeve</text>
  <path d="M 342 222 L 408 222 Q 433.95000000000005 85.35000000000001 429 60 L 372 60 Q 386.7 141.75 342 153 Q 348.9 156.45 342 222 z" fill="rgb(255,217,194)" stroke="black"/>
  <text fill="rgb(9,33,173)" font-size="25" x="353.6" y="146.4">Rback</text>
  <path d="M 510 222 L 576 222 Q 569.1 156.45 576 153 Q 535.95 140.25 546 60 L 489 60 Q 484.04999999999995 85.35 510 222 z" fill="rgb(255,217,194)" stroke="black"/>
  <text fill="rgb(9,33,173)" font-size="25" x="514.4" y="146.4">Rfront</text>
  <path d="M 639 168 L 696 168 L 753 168 L 756 132 Q 724.5 114.0 747 60 L 723 60 Q 696.0 85.55511092458491 669 60 L 645 60 Q 667.5 114.0 636 132 L 639 168 z" fill="rgb(255,217,194)" stroke="black"/>
  <text fill="rgb(9,33,173)" font-size="25" x="671.0" y="115.0">up_back</text>
  <path d="M 819 165 L 876 165 L 933 165 L 936 132 Q 904.5 114.0 927 60 L 903 60 L 876 99 L 849 60 L 825 60 Q 847.5 114.0 816 132 L 819 165 z" fill="rgb(255,217,194)" stroke="black"/>
  <text fill="rgb(9,33,173)" font-size="25" x="851.0" y="112.8">up_front</text>
  <path d="M 1017 222 L 1083 222 Q 1076.1 156.45 1083 153 Q 1038.3 141.75 1053 60 L 996 60 Q 991.05 85.35 1017 222 z" fill="rgb(255,217,194)" stroke="black"/>
  <text fill="rgb(9,33,173)" font-size="25" x="1021.4000000000001" y="146.4">Lback</text>
  <path d="M 1143 222 L 1209 222 Q 1234.9499999999998 85.35000000000001 1230 60 L 1173 60 Q 1183.05 140.25 1143 153 Q 1149.9 156.45 1143 222 z" fill="rgb(255,217,194)" stroke="black"/>
  <text fill="rgb(9,33,173)" font-size="25" x="1154.6" y="146.4">Lfront</text>
  <path d="M 1290 132 L 1362 135 Q 1394.7 116.1 1371 60 L 1290 60 L 1290 132 z" fill="rgb(255,217,194)" stroke="black"/>
  <text fill="rgb(9,33,173)" font-size="25" x="1303.25" y="99.75">lbsleeve</text>
  <path d="M 1431 135 L 1512 135 Q 1535.7 78.9 1503 60 L 1431 63 L 1431 135 z" fill="rgb(255,217,194)" stroke="black"/>
  <text fill="rgb(9,33,173)" font-size="25" x="1444.25" y="101.25">lfsleeve</text>
</svg>
