<?xml version="1.0" encoding="utf-8" ?>
<svg xmlns="http://www.w3.org/2000/svg" xmlns:ev="http://www.w3.org/2001/xml-events" xmlns:xlink="http://www.w3.org/1999/xlink" baseProfile="tiny" height="267px" version="1.2" width="804px">
  <defs/>
  <path d="M 66 207 Q 126.0 211.91548799143294 186 207 L 192 102 L 180 60 L 72 60 L 60 102 L 66 207 z" fill="rgb(255,217,194)" stroke="black"/>
  <text fill="rgb(9,33,173)" font-size="25" x="101.0" y="126.0">skirt_back</text>
  <path d="M 258 207 Q 318.0 215.00048267863463 378 207 L 384 102 L 372 60 L 264 60 L 252 102 L 258 207 z" fill="rgb(255,217,194)" stroke="black"/>
  <text fill="rgb(9,33,173)" font-size="25" x="293.0" y="126.0">skirt_front</text>
  <path d="M 450 168 L 558 168 L 564 111 Q 540.9 99.3 555 60 L 534 60 Q 504.0 69.46042864543797 474 60 L 453 60 Q 467.09999999999997 99.29999999999998 444 111 L 450 168 z" fill="rgb(255,217,194)" stroke="black"/>
  <text fill="rgb(9,33,173)" font-size="25" x="479.0" y="102.75">top_back</text>
  <path d="M 630 165 L 738 165 L 744 108 Q 722.0999999999999 97.19999999999999 735 60 L 714 60 L 684 69 L 654 60 L 633 60 Q 645.9000000000001 97.19999999999999 624 108 L 630 165 z" fill="rgb(255,217,194)" stroke="black"/>
  <text fill="rgb(9,33,173)" font-size="25" x="659.0" y="98.0">top_front</text>
</svg>
