<?xml version="1.0" encoding="utf-8" ?>
<svg xmlns="http://www.w3.org/2000/svg" xmlns:ev="http://www.w3.org/2001/xml-events" xmlns:xlink="http://www.w3.org/1999/xlink" baseProfile="tiny" height="339px" version="1.2" width="1044px">
  <defs/>
  <path d="M 60 129 L 144 129 Q 160.8 80.10000000000001 132 66 L 60 60 L 60 129 z" fill="rgb(255,217,194)" stroke="black"/>
  <text fill="rgb(9,33,173)" font-size="25" x="74.0" y="99.0">rbsleeve</text>
  <path d="M 204 129 L 276 123 Q 304.8 108.89999999999999 288 60 L 204 60 L 204 129 z" fill="rgb(255,217,194)" stroke="black"/>
  <text fill="rgb(9,33,173)" font-size="25" x="218.0" y="96.0">rfsleeve</text>
  <path d="M 348 279 L 492 279 L 492 123 Q 463.2 108.89999999999999 480 60 L 453 60 Q 420.0 71.94890013509834 387 60 L 360 60 Q 376.8 108.89999999999999 348 123 L 348 279 z" fill="rgb(255,217,194)" stroke="black"/>
  <text fill="rgb(9,33,173)" font-size="25" x="395.0" y="133.5">back</text>
  <path d="M 552 276 L 696 276 L 696 123 Q 667.1999999999999 108.89999999999999 684 60 L 657 60 L 624 144 L 591 60 L 564 60 Q 580.8000000000001 108.89999999999999 552 123 L 552 276 z" fill="rgb(255,217,194)" stroke="black"/>
  <text fill="rgb(9,33,173)" font-size="25" x="599.0" y="134.33333333333334">front</text>
  <path d="M 756 129 L 828 123 Q 856.8000000000001 108.89999999999999 840 60 L 756 60 L 756 129 z" fill="rgb(255,217,194)" stroke="black"/>
  <text fill="rgb(9,33,173)" font-size="25" x="770.0" y="96.0">lbsleeve</text>
  <path d="M 900 129 L 984 129 Q 1000.8000000000001 80.10000000000001 972 66 L 900 60 L 900 129 z" fill="rgb(255,217,194)" stroke="black"/>
  <text fill="rgb(9,33,173)" font-size="25" x="914.0" y="99.0">lfsleeve</text>
</svg>
