<?xml version="1.0" encoding="utf-8" ?>
<svg xmlns="http://www.w3.org/2000/svg" xmlns:ev="http://www.w3.org/2001/xml-events" xmlns:xlink="http://www.w3.org/1999/xlink" baseProfile="tiny" height="399px" version="1.2" width="1020px">
  <defs/>
  <path d="M 60 339 L 171 339 L 171 60 L 90 60 Q 103.5 139.5 60 150 Q 78.9 159.45 60 339 z" fill="rgb(255,217,194)" stroke="black"/>
  <text fill="rgb(9,33,173)" font-size="25" x="85.4" y="192.6">Rback</text>
  <path d="M 231 339 L 342 339 Q 323.1 159.45000000000002 342 150 Q 303.0 138.0 312 60 L 231 60 L 231 339 z" fill="rgb(255,217,194)" stroke="black"/>
  <text fill="rgb(9,33,173)" font-size="25" x="266.6" y="192.6">Rfront</text>
  <path d="M 402 72 L 441 72 L 480 72 L 480 60 L 402 60 L 402 72 z" fill="rgb(255,217,194)" stroke="black"/>
  <text fill="rgb(9,33,173)" font-size="25" x="416.0" y="70.2">wb_back</text>
  <path d="M 540 72 L 579 72 L 618 72 L 618 60 L 540 60 L 540 72 z" fill="rgb(255,217,194)" stroke="black"/>
  <text fill="rgb(9,33,173)" font-size="25" x="554.0" y="70.2">wb_front</text>
  <path d="M 678 339 L 789 339 Q 770.1 159.45000000000002 789 150 Q 745.5 139.5 759 60 L 678 60 L 678 339 z" fill="rgb(255,217,194)" stroke="black"/>
  <text fill="rgb(9,33,173)" font-size="25" x="713.6" y="192.6">Lback</text>
  <path d="M 849 339 L 960 339 L 960 60 L 879 60 Q 888.0 138.0 849 150 Q 867.9 159.45 849 339 z" fill="rgb(255,217,194)" stroke="black"/>
  <text fill="rgb(9,33,173)" font-size="25" x="874.4" y="192.6">Lfront</text>
</svg>
