<?xml version="1.0" encoding="utf-8" ?>
<svg xmlns="http://www.w3.org/2000/svg" xmlns:ev="http://www.w3.org/2001/xml-events" xmlns:xlink="http://www.w3.org/1999/xlink" baseProfile="tiny" height="285px" version="1.2" width="1428px">
  <defs/>
  <path d="M 60 225 L 129 225 L 180 60 L 90 60 Q 97.5 128.25 60 135 Q 69.0 139.5 60 225 z" fill="rgb(255,217,194)" stroke="black"/>
  <text fill="rgb(9,33,173)" font-size="25" x="78.8" y="144.0">Rback</text>
  <path d="M 291 225 L 360 225 Q 351.0 139.5 360 135 Q 326.25 126.75 330 60 L 240 60 L 291 225 z" fill="rgb(255,217,194)" stroke="black"/>
  <text fill="rgb(9,33,173)" font-size="25" x="291.2" y="144.0">Rfront</text>
  <path d="M 420 78 L 459 78 L 498 78 L 498 60 L 420 60 L 420 78 z" fill="rgb(255,217,194)" stroke="black"/>
  <text fill="rgb(9,33,173)" font-size="25" x="434.0" y="73.8">wb_back</text>
  <path d="M 558 78 L 597 78 L 636 78 L 636 60 L 558 60 L 558 78 z" fill="rgb(255,217,194)" stroke="black"/>
  <text fill="rgb(9,33,173)" font-size="25" x="572.0" y="73.8">wb_front</text>
  <path d="M 696 156 L 822 156 L 822 126 Q 792.9 109.8 813 60 L 789 60 Q 759.0 75.75644240883298 729 60 L 705 60 Q 725.1 109.79999999999998 696 126 L 696 156 z" fill="rgb(255,217,194)" stroke="black"/>
  <text fill="rgb(9,33,173)" font-size="25" x="734.0" y="103.5">top_back</text>
  <path d="M 882 156 L 1008 156 L 1008 126 Q 978.9 109.8 999 60 L 975 60 L 945 66 L 915 60 L 891 60 Q 911.1 109.79999999999998 882 126 L 882 156 z" fill="rgb(255,217,194)" stroke="black"/>
  <text fill="rgb(9,33,173)" font-size="25" x="920.0" y="99.66666666666667">top_front</text>
  <path d="M 1119 225 L 1188 225 Q 1179.0 139.5 1188 135 Q 1150.5 128.25 1158 60 L 1068 60 L 1119 225 z" fill="rgb(255,217,194)" stroke="black"/>
  <text fill="rgb(9,33,173)" font-size="25" x="1119.2" y="144.0">Lback</text>
  <path d="M 1248 225 L 1317 225 L 1368 60 L 1278 60 Q 1281.75 126.75 1248 135 Q 1257.0 139.5 1248 225 z" fill="rgb(255,217,194)" stroke="black"/>
  <text fill="rgb(9,33,173)" font-size="25" x="1266.8" y="144.0">Lfront</text>
</svg>
