<?xml version="1.0" encoding="utf-8" ?>
<svg xmlns="http://www.w3.org/2000/svg" xmlns:ev="http://www.w3.org/2001/xml-events" xmlns:xlink="http://www.w3.org/1999/xlink" baseProfile="full" height="414.0px" version="1.1" width="1825.2px">
  <defs/>
  <path d="M 60 168 L 243 168 Q 243.28708881139755 169.17990628257394 219 123 Q 192.1098134815693 107.2099204659462 210 63 Q 210.5385827422142 62.230850636959076 177 60 Q 176.6194615289569 59.5183684900403 150 99 Q 149.6424070224166 98.45674645900726 123 63 Q 122.46808218955994 63.582155585289 90 60 Q 110.19677156209946 108.68140858411789 81 123 L 60 168 z" fill="rgb(255,217,194)" stroke="black"/>
  <path d="M 303 168 L 492 168 L 465 123 Q 437.6350347697735 107.3917720913887 456 63 Q 456.40398252010345 61.68652564287186 426 60 Q 397.96727031469345 121.16383767127991 369 60 Q 368.35160234570503 60.25986313819885 339 60 Q 359.3091244697571 110.4747405052185 330 123 Q 329.9948125910014 121.57659068517387 303 168 z" fill="rgb(255,217,194)" stroke="black"/>
  <path d="M 552 72 Q 552.3664015978575 72.1816954035312 585 72 Q 585.496114321053 72.05021524429321 621 72 Q 620.8016275763512 72.04744901508093 621 63 Q 621.018935278058 63.73898445814848 552 60 L 552 72 z" fill="rgb(255,217,194)" stroke="black"/>
  <path d="M 701.2 72.0 Q 700.5600522875786 72.12444685399532 737.2 72.0 Q 737.6669261872769 71.45703989267349 773.2 72.0 Q 773.2858449935914 72.2159754037857 773.2 60.0 Q 773.4810391783715 58.95050793886185 701.2 60.0 Q 701.211291384697 59.43486052751541 701.2 72.0 z" fill="rgb(255,217,194)" stroke="black"/>
  <path d="M 842.2 351.0 L 947.2 351.0 Q 954.9153008393944 355.8200541995466 962.2 60.0 L 869.2 63.0 Q 875.3481566429139 128.56860476732254 842.2 141.0 Q 861.8146465092898 150.9785953760147 842.2 351.0 z" fill="rgb(255,217,194)" stroke="black"/>
  <path d="M 1092.6 351.0 Q 1094.5337203502654 351.2213733717799 1200.6 351.0 Q 1178.8232663556932 147.39560490846634 1200.6 132.0 Q 1167.5233982563018 125.68922746181488 1170.6 60.0 Q 1172.0853353351354 60.07922976091504 1077.6 60.0 Q 1073.7949606183915 65.01396054960787 1092.6 351.0 z" fill="rgb(255,217,194)" stroke="black"/>
  <path d="M 1358.4 354.0 Q 1360.2513600155712 353.47396667674184 1463.4 354.0 Q 1439.3035374820233 156.12093356251717 1460.4 135.0 Q 1431.5304492205382 127.16367745399475 1433.4 63.0 Q 1431.4105526782573 63.21160989627242 1343.4 60.0 Q 1346.248849542439 66.07687878794968 1358.4 354.0 z" fill="rgb(255,217,194)" stroke="black"/>
  <path d="M 1586.8 354.0 L 1700.8 354.0 Q 1707.751214749366 342.11257980018854 1712.8 60.0 Q 1713.887709851563 61.70543845742941 1613.8 63.0 Q 1623.0850529253482 130.28066208958626 1586.8 138.0 Q 1610.6446680903434 147.43101060390472 1586.8 354.0 z" fill="rgb(255,217,194)" stroke="black"/>
</svg>
