<?xml version="1.0" encoding="utf-8" ?>
<svg xmlns="http://www.w3.org/2000/svg" xmlns:ev="http://www.w3.org/2001/xml-events" xmlns:xlink="http://www.w3.org/1999/xlink" baseProfile="full" height="387px" version="1.1" width="2694.5px">
  <defs/>
  <path d="M 60 195 L 333 195 Q 334.8434104844928 194.76177960075438 261 120 Q 234.5839621424675 105.68370527029037 252 63 Q 252.10640823841095 62.07038050889969 219 63 Q 220.2133128941059 62.832139536738396 195 99 Q 195.90619634091854 99.22345777228475 171 60 Q 170.74748526513577 61.3273610919714 138 63 Q 155.62894731760025 107.72172743082047 129 123 L 60 195 z" fill="rgb(255,217,194)" stroke="black"/>
  <path d="M 393 195 L 672 195 Q 671.3912902660668 193.6697788350284 597 120 Q 571.4043189883232 105.70891445875168 588 60 Q 588.2327117174864 61.0599045753479 555 60 Q 530.608832359314 90.55560493469238 507 60 Q 506.60330191254616 60.55055218935013 474 60 Q 492.80137395858765 106.65756449103355 465 120 L 393 195 z" fill="rgb(255,217,194)" stroke="black"/>
  <path d="M 732 327 Q 816.6340164542198 293.39130860567093 897 327 Q 898.2404423430562 323.22300420328975 837 108 Q 837.5406108163297 108.17526111379266 828 60 Q 812.4817177802324 65.51459124684334 798 63 Q 797.3798028342426 64.38072110339999 789 108 Q 788.5849579498172 105.32997813820839 732 327 z" fill="rgb(255,217,194)" stroke="black"/>
  <path d="M 958.5 327.0 Q 1040.3957436829805 332.80978748202324 1120.5 324.0 L 1060.5 105.0 Q 1061.0167604461312 104.228416711092 1054.5 60.0 Q 1039.3521834611893 63.43538090586662 1024.5 60.0 Q 1025.5031906962395 60.12620859593153 1015.5 105.0 L 958.5 327.0 z" fill="rgb(255,217,194)" stroke="black"/>
  <path d="M 1180.5 321.0 Q 1252.4233766198158 304.80347192287445 1330.5 321.0 Q 1332.7349269241095 318.68205481767654 1276.5 105.0 Q 1275.3604076094925 103.8567731268704 1270.5 60.0 Q 1254.3336896896362 63.753418922424316 1240.5 60.0 Q 1240.1203897744417 60.53365805000067 1234.5 108.0 Q 1234.1567698270082 103.69403196126223 1180.5 321.0 z" fill="rgb(255,217,194)" stroke="black"/>
  <path d="M 1390.5 321.0 Q 1465.5140678286552 281.72870671749115 1540.5 318.0 Q 1540.6167009584606 315.3938671220094 1486.5 105.0 Q 1487.3997684270144 104.1907872185111 1480.5 60.0 Q 1465.8851437568665 63.51156547665596 1450.5 60.0 Q 1449.6888201143593 61.27751063928008 1444.5 105.0 Q 1442.2177197821438 104.75892627239227 1390.5 321.0 z" fill="rgb(255,217,194)" stroke="black"/>
  <path d="M 1610.5 318.0 Q 1685.3516246676445 299.7723836749792 1760.5 318.0 L 1703.5 102.0 Q 1703.0926441326737 102.23636897653341 1700.5 60.0 Q 1684.438691020012 63.182214349508286 1670.5 60.0 Q 1670.1181151717901 61.210287004709244 1664.5 105.0 Q 1661.0325515307486 103.02424956858158 1610.5 318.0 z" fill="rgb(255,217,194)" stroke="black"/>
  <path d="M 1880.0 321.0 Q 1958.0717385411263 288.39296624064445 2033.0 321.0 L 1976.0 105.0 Q 1976.8745948728174 104.92493926081806 1970.0 60.0 Q 1956.1796364188194 63.44656750559807 1943.0 60.0 Q 1942.1505321227014 61.414414934813976 1937.0 105.0 Q 1934.4092373363674 107.28801556304097 1880.0 321.0 z" fill="rgb(255,217,194)" stroke="black"/>
  <path d="M 2161.5 318.0 Q 2234.855465054512 328.9838612303138 2314.5 318.0 Q 2317.4248261749744 317.75909715145826 2257.5 102.0 Q 2256.2029378563166 101.11651676148176 2251.5 60.0 Q 2235.8384063243866 63.365584909915924 2221.5 60.0 Q 2221.053479857743 60.406622014939785 2215.5 102.0 L 2161.5 318.0 z" fill="rgb(255,217,194)" stroke="black"/>
  <path d="M 2422.0 321.0 Q 2500.0929906219244 296.7844335436821 2578.0 318.0 Q 2580.3483249768615 315.8120352253318 2521.0 102.0 Q 2521.6397928372025 100.98628030344844 2512.0 60.0 Q 2498.478822886944 63.00213861465454 2485.0 60.0 Q 2484.594420157373 61.438943557441235 2479.0 102.0 Q 2476.4748509302735 102.44163597375154 2422.0 321.0 z" fill="rgb(255,217,194)" stroke="black"/>
</svg>
