<?xml version="1.0" encoding="utf-8" ?>
<svg xmlns="http://www.w3.org/2000/svg" xmlns:ev="http://www.w3.org/2001/xml-events" xmlns:xlink="http://www.w3.org/1999/xlink" baseProfile="tiny" height="243px" version="1.2" width="1560px">
  <defs/>
  <path d="M 60 117 L 150 117 Q 162.89999999999998 79.80000000000001 141 69 L 60 60 L 60 117 z" fill="rgb(255,217,194)" stroke="black"/>
  <text fill="rgb(9,33,173)" font-size="25" x="77.75" y="93.75">rbsleeve</text>
  <path d="M 210 117 L 291 108 Q 312.9 97.19999999999999 300 60 L 210 60 L 210 117 z" fill="rgb(255,217,194)" stroke="black"/>
  <text fill="rgb(9,33,173)" font-size="25" x="227.75" y="89.25">rfsleeve</text>
  <path d="M 360 183 Q 453.0 222.92865557470344 546 183 L 531 102 L 510 60 L 396 60 L 375 102 L 360 183 z" fill="rgb(255,217,194)" stroke="black"/>
  <text fill="rgb(9,33,173)" font-size="25" x="428.0" y="118.0">skirt_back</text>
  <path d="M 606 183 Q 699.0 148.4287479906049 792 183 L 777 102 L 756 60 L 642 60 L 621 102 L 606 183 z" fill="rgb(255,217,194)" stroke="black"/>
  <text fill="rgb(9,33,173)" font-size="25" x="674.0" y="118.0">skirt_front</text>
  <path d="M 867 168 L 981 168 L 996 111 Q 972.0 100.5 984 60 L 942 60 Q 924.0 72.90735749806569 906 60 L 864 60 Q 876.0 100.49999999999999 852 111 L 867 168 z" fill="rgb(255,217,194)" stroke="black"/>
  <text fill="rgb(9,33,173)" font-size="25" x="899.0" y="102.75">top_back</text>
  <path d="M 1071 165 L 1185 165 L 1200 111 Q 1176.0 100.5 1188 60 L 1146 60 L 1128 96 L 1110 60 L 1068 60 Q 1080.0 100.49999999999999 1056 111 L 1071 165 z" fill="rgb(255,217,194)" stroke="black"/>
  <text fill="rgb(9,33,173)" font-size="25" x="1103.0" y="101.66666666666667">top_front</text>
  <path d="M 1260 117 L 1341 108 Q 1362.9 97.19999999999999 1350 60 L 1260 60 L 1260 117 z" fill="rgb(255,217,194)" stroke="black"/>
  <text fill="rgb(9,33,173)" font-size="25" x="1277.75" y="89.25">lbsleeve</text>
  <path d="M 1410 117 L 1500 117 Q 1512.9 79.80000000000001 1491 69 L 1410 60 L 1410 117 z" fill="rgb(255,217,194)" stroke="black"/>
  <text fill="rgb(9,33,173)" font-size="25" x="1427.75" y="93.75">lfsleeve</text>
</svg>
