<?xml version="1.0" encoding="utf-8" ?>
<svg xmlns="http://www.w3.org/2000/svg" xmlns:ev="http://www.w3.org/2001/xml-events" xmlns:xlink="http://www.w3.org/1999/xlink" baseProfile="tiny" height="366px" version="1.2" width="1572px">
  <defs/>
  <path d="M 60 153 L 120 153 Q 147.3 90.60000000000001 111 69 L 60 60 L 60 153 z" fill="rgb(255,217,194)" stroke="black"/>
  <text fill="rgb(9,33,173)" font-size="25" x="62.75" y="111.75">rbsleeve</text>
  <path d="M 180 153 L 231 144 Q 267.3 122.39999999999999 240 60 L 180 60 L 180 153 z" fill="rgb(255,217,194)" stroke="black"/>
  <text fill="rgb(9,33,173)" font-size="25" x="182.75" y="107.25">rfsleeve</text>
  <path d="M 300 306 L 363 306 Q 395.7 98.10000000000001 387 60 L 330 60 Q 344.7 141.75 300 153 Q 315.3 160.65 300 306 z" fill="rgb(255,217,194)" stroke="black"/>
  <text fill="rgb(9,33,173)" font-size="25" x="311.0" y="180.0">Rback</text>
  <path d="M 471 306 L 534 306 Q 518.7 160.65 534 153 Q 493.95 140.25 504 60 L 447 60 Q 438.3 98.10000000000001 471 306 z" fill="rgb(255,217,194)" stroke="black"/>
  <text fill="rgb(9,33,173)" font-size="25" x="473.0" y="180.0">Rfront</text>
  <path d="M 618 168 L 675 168 L 732 168 L 756 144 Q 718.8 123.6 744 60 L 705 60 Q 675.0 125.86681753864231 645 60 L 606 60 Q 631.2 123.6 594 144 L 618 168 z" fill="rgb(255,217,194)" stroke="black"/>
  <text fill="rgb(9,33,173)" font-size="25" x="650.0" y="117.66666666666667">up_back</text>
  <path d="M 840 165 L 897 165 L 954 165 L 978 144 Q 940.8 123.6 966 60 L 927 60 L 897 102 L 867 60 L 828 60 Q 853.2 123.6 816 144 L 840 165 z" fill="rgb(255,217,194)" stroke="black"/>
  <text fill="rgb(9,33,173)" font-size="25" x="872.0" y="115.5">up_front</text>
  <path d="M 1062 306 L 1125 306 Q 1109.7 160.65 1125 153 Q 1080.3 141.75 1095 60 L 1038 60 Q 1029.3 98.10000000000001 1062 306 z" fill="rgb(255,217,194)" stroke="black"/>
  <text fill="rgb(9,33,173)" font-size="25" x="1064.0" y="180.0">Lback</text>
  <path d="M 1185 306 L 1248 306 Q 1280.7 98.10000000000001 1272 60 L 1215 60 Q 1225.05 140.25 1185 153 Q 1200.3 160.65 1185 306 z" fill="rgb(255,217,194)" stroke="black"/>
  <text fill="rgb(9,33,173)" font-size="25" x="1196.0" y="180.0">Lfront</text>
  <path d="M 1332 153 L 1383 144 Q 1419.3 122.39999999999999 1392 60 L 1332 60 L 1332 153 z" fill="rgb(255,217,194)" stroke="black"/>
  <text fill="rgb(9,33,173)" font-size="25" x="1334.75" y="107.25">lbsleeve</text>
  <path d="M 1452 153 L 1512 153 Q 1539.3 90.60000000000001 1503 69 L 1452 60 L 1452 153 z" fill="rgb(255,217,194)" stroke="black"/>
  <text fill="rgb(9,33,173)" font-size="25" x="1454.75" y="111.75">lfsleeve</text>
</svg>
