<?xml version="1.0" encoding="utf-8" ?>
<svg xmlns="http://www.w3.org/2000/svg" xmlns:ev="http://www.w3.org/2001/xml-events" xmlns:xlink="http://www.w3.org/1999/xlink" baseProfile="tiny" height="357px" version="1.2" width="1488px">
  <defs/>
  <path d="M 60 297 L 123 297 L 180 60 L 90 60 Q 99.9 132.75 60 141 Q 75.6 148.8 60 297 z" fill="rgb(255,217,194)" stroke="black"/>
  <text fill="rgb(9,33,173)" font-size="25" x="77.6" y="174.0">Rback</text>
  <path d="M 297 297 L 360 297 Q 344.4 148.8 360 141 Q 324.15 131.25 330 60 L 240 60 L 297 297 z" fill="rgb(255,217,194)" stroke="black"/>
  <text fill="rgb(9,33,173)" font-size="25" x="292.4" y="174.0">Rfront</text>
  <path d="M 420 66 L 459 66 L 498 66 L 498 60 L 420 60 L 420 66 z" fill="rgb(255,217,194)" stroke="black"/>
  <text fill="rgb(9,33,173)" font-size="25" x="434.0" y="66.6">wb_back</text>
  <path d="M 558 66 L 597 66 L 636 66 L 636 60 L 558 60 L 558 66 z" fill="rgb(255,217,194)" stroke="black"/>
  <text fill="rgb(9,33,173)" font-size="25" x="572.0" y="66.6">wb_front</text>
  <path d="M 696 168 L 852 168 L 852 126 Q 822.0 111.0 840 60 L 801 60 Q 774.0 147.92925299669702 747 60 L 708 60 Q 726.0 110.99999999999999 696 126 L 696 168 z" fill="rgb(255,217,194)" stroke="black"/>
  <text fill="rgb(9,33,173)" font-size="25" x="749.0" y="106.5">top_back</text>
  <path d="M 912 168 L 1068 168 L 1068 126 Q 1038.0 111.0 1056 60 L 1017 60 L 990 66 L 963 60 L 924 60 Q 942.0 110.99999999999999 912 126 L 912 168 z" fill="rgb(255,217,194)" stroke="black"/>
  <text fill="rgb(9,33,173)" font-size="25" x="965.0" y="102.33333333333333">top_front</text>
  <path d="M 1185 297 L 1248 297 Q 1232.4 148.8 1248 141 Q 1208.1 132.75 1218 60 L 1128 60 L 1185 297 z" fill="rgb(255,217,194)" stroke="black"/>
  <text fill="rgb(9,33,173)" font-size="25" x="1180.4" y="174.0">Lback</text>
  <path d="M 1308 297 L 1371 297 L 1428 60 L 1338 60 Q 1343.85 131.25 1308 141 Q 1323.6 148.8 1308 297 z" fill="rgb(255,217,194)" stroke="black"/>
  <text fill="rgb(9,33,173)" font-size="25" x="1325.6" y="174.0">Lfront</text>
</svg>
