<?xml version="1.0" encoding="utf-8" ?>
<svg xmlns="http://www.w3.org/2000/svg" xmlns:ev="http://www.w3.org/2001/xml-events" xmlns:xlink="http://www.w3.org/1999/xlink" baseProfile="tiny" height="387px" version="1.2" width="1068px">
  <defs/>
  <path d="M 60 327 Q 183.0 313.6009514757948 306 327 L 255 102 L 237 60 L 129 60 L 111 102 L 60 327 z" fill="rgb(255,217,194)" stroke="black"/>
  <text fill="rgb(9,33,173)" font-size="25" x="158.0" y="166.0">skirt_back</text>
  <path d="M 366 327 Q 489.0 337.8750804357291 612 327 L 561 102 L 543 60 L 435 60 L 417 102 L 366 327 z" fill="rgb(255,217,194)" stroke="black"/>
  <text fill="rgb(9,33,173)" font-size="25" x="464.0" y="166.0">skirt_front</text>
  <path d="M 687 168 L 795 168 L 810 111 Q 786.0 100.5 798 60 L 759 60 Q 741.0 71.57286878969256 723 60 L 684 60 Q 696.0 100.49999999999999 672 111 L 687 168 z" fill="rgb(255,217,194)" stroke="black"/>
  <text fill="rgb(9,33,173)" font-size="25" x="716.0" y="102.75">top_back</text>
  <path d="M 885 165 L 993 165 L 1008 111 Q 984.0 100.5 996 60 L 957 60 L 939 72 L 921 60 L 882 60 Q 894.0 100.49999999999999 870 111 L 885 165 z" fill="rgb(255,217,194)" stroke="black"/>
  <text fill="rgb(9,33,173)" font-size="25" x="914.0" y="99.0">top_front</text>
</svg>
